<svg width="213" height="100" viewBox="0 0 213 100" fill="none" xmlns="http://www.w3.org/2000/svg">
<g clip-path="url(#clip0_1_4)">
<path d="M18.876 41.014C18.876 52.125 21.514 55.678 25.827 55.678C30.139 55.678 32.777 52.125 32.777 41.014C32.777 29.902 30.139 26.35 25.827 26.35C21.514 26.35 18.876 29.902 18.876 41.014ZM41.557 84.549C41.557 81.757 40.288 80.237 35.569 80.237H17.707C15.273 82.57 14.156 86.223 14.156 88.457C14.156 94.392 19.281 97.437 25.827 97.437C34.199 97.437 41.557 92.719 41.557 84.549ZM34.959 25.487C42.927 27.517 48.204 32.489 48.204 41.014C48.204 52.431 38.613 57.555 25.827 57.555C22.579 57.555 19.535 57.251 16.846 56.54C13.346 58.62 10.91 60.295 10.91 62.933C10.91 65.318 12.38 66.384 15.172 66.384H39.07C46.63 66.384 53.126 69.073 53.126 77.547C53.126 87.543 43.689 99.212 23.036 99.212C7.35801 99.212 0 95.203 0 90.231C0 83.636 10.199 84.043 15.73 80.237H13.294C9.33701 80.237 1.67599 78.867 1.67599 70.596C1.67599 64.71 5.02301 60.65 14.919 55.982C7.96601 53.699 3.50101 48.827 3.50101 41.014C3.50101 29.546 13.04 24.472 25.827 24.472C28.566 24.472 31.206 24.725 33.591 25.183L34.959 25.487Z" fill="white"/>
<path d="M51.631 0C51.631 0 53.069 9.027 48.397 15.522C43.722 22.02 34.707 23.528 34.707 23.528C34.707 23.528 33.267 14.502 37.94 8.004C42.614 1.507 51.631 0 51.631 0Z" fill="white"/>
<path d="M54.112 23.299C54.112 23.299 50.621 25.65 46.074 26.091C41.526 26.528 37.648 24.89 37.648 24.89C37.648 24.89 41.139 22.539 45.686 22.098C50.233 21.66 54.112 23.299 54.112 23.299Z" fill="white"/>
<path d="M32.658 22.946C32.658 22.946 28.91 21.035 26.316 17.274C23.725 13.512 23.277 9.325 23.277 9.325C23.277 9.325 27.027 11.238 29.619 14.998C32.209 18.759 32.658 22.946 32.658 22.946Z" fill="white"/>
<path d="M66.091 71.447C66.091 70.797 66.14 70.308 65.96 69.999C65.798 69.69 65.441 69.544 64.611 69.609V72.26H67.376V74.976H64.611V76.749C64.611 77.271 64.562 77.791 65.082 78.116V80.589H59.796V78.116C60.317 77.791 60.268 77.271 60.268 76.749V70.488C60.268 69.756 60.219 69.316 59.715 69.121V66.648H69.848V71.447H66.091Z" fill="white"/>
<path d="M75.182 76.766C75.182 76.864 75.133 77.856 76.028 77.856C76.923 77.856 76.873 76.864 76.873 76.766V70.455C76.873 70.357 76.923 69.381 76.028 69.381C75.133 69.381 75.182 70.357 75.182 70.455V76.766ZM81.217 76.555C81.217 80.003 79.102 80.865 76.028 80.865C72.953 80.865 70.839 80.003 70.839 76.555V70.682C70.839 67.235 72.953 66.372 76.028 66.372C79.102 66.372 81.217 67.235 81.217 70.682V76.555Z" fill="white"/>
<path d="M86.887 76.766C86.887 76.864 86.838 77.856 87.733 77.856C88.627 77.856 88.578 76.864 88.578 76.766V70.455C88.578 70.357 88.627 69.381 87.733 69.381C86.838 69.381 86.887 70.357 86.887 70.455V76.766ZM92.921 76.555C92.921 80.003 90.807 80.865 87.733 80.865C84.658 80.865 82.543 80.003 82.543 76.555V70.682C82.543 67.235 84.658 66.372 87.733 66.372C90.807 66.372 92.921 67.235 92.921 70.682V76.555Z" fill="white"/>
<path d="M99.069 77.644H99.411C100.353 77.644 100.647 77.303 100.647 76.294V71.04C100.647 70.032 100.353 69.69 99.411 69.69H99.069V77.644ZM100.191 66.648C101.379 66.648 102.745 66.665 103.737 67.43C104.876 68.324 104.99 69.593 104.99 70.927V76.148C104.99 77.515 104.924 78.571 103.868 79.564C102.875 80.507 101.638 80.589 100.322 80.589H94.173V78.117C94.66 77.905 94.71 77.482 94.725 77.01V70.227C94.71 69.74 94.676 69.332 94.173 69.121V66.648H100.191Z" fill="white"/>
<path d="M117.781 70.861C117.781 70.243 117.765 69.381 116.92 69.381C116.367 69.381 116.073 69.787 116.073 70.308C116.073 70.585 116.106 70.861 116.334 71.089C116.578 71.35 117.195 71.545 117.553 71.642C118.594 71.918 119.994 72.293 120.872 72.878C121.377 73.22 121.751 73.627 121.946 74.213C122.174 74.814 122.271 75.481 122.271 76.132V76.197C122.271 78.881 121.083 80.865 116.935 80.865C115.163 80.865 113.292 80.523 111.877 79.402V75.66H116.122C116.122 76.489 116.106 77.107 116.252 77.401C116.399 77.676 116.708 77.856 117.033 77.856C117.619 77.856 117.879 77.286 117.879 76.782C117.879 75.351 116.984 75.237 115.78 74.944C113.145 74.293 111.665 73.659 111.665 70.65V70.34C111.73 68.844 111.973 68.096 113.113 67.235C114.04 66.534 115.389 66.372 116.691 66.372C118.578 66.372 120.254 66.746 121.832 67.836V71.122H117.781V70.861Z" fill="white"/>
<path d="M129.272 66.648H134.314V69.121C133.729 69.446 133.777 69.966 133.777 70.487V76.131C133.744 77.612 133.63 78.783 132.443 79.824C131.418 80.718 130.003 80.865 128.751 80.865C127.498 80.865 126.083 80.718 125.058 79.824C123.872 78.783 123.757 77.612 123.725 76.131V70.487C123.725 69.966 123.773 69.446 123.252 69.121V66.648H128.54V69.121C128.019 69.446 128.068 69.966 128.068 70.487V76.848C128.068 77.124 128.132 77.839 128.929 77.839C129.727 77.839 129.792 77.124 129.792 76.848V70.487C129.776 69.966 129.824 69.446 129.272 69.121V66.648Z" fill="white"/>
<path d="M140.346 73.643H140.752C142.037 73.643 141.989 72.911 141.989 71.609C141.989 70.292 142.037 69.56 140.752 69.56H140.346V73.643ZM136.002 70.488C136.002 69.967 136.052 69.446 135.531 69.121V66.648H141.208C142.396 66.648 143.99 66.632 144.966 67.38C146.56 68.601 146.332 70.83 146.332 71.187V72.293C146.332 74.945 145.453 76.587 141.892 76.587H140.346C140.346 77.271 140.297 77.791 140.818 78.117V80.589H135.531V78.117C136.052 77.791 136.002 77.271 136.002 76.749V70.488Z" fill="white"/>
<path d="M152.203 73.643H152.609C153.894 73.643 153.846 72.911 153.846 71.609C153.846 70.292 153.894 69.56 152.609 69.56H152.203V73.643ZM147.859 70.488C147.859 69.967 147.908 69.446 147.388 69.121V66.648H153.064C154.253 66.648 155.847 66.632 156.822 67.38C158.417 68.601 158.189 70.83 158.189 71.187V72.293C158.189 74.945 157.31 76.587 153.748 76.587H152.203C152.203 77.271 152.154 77.791 152.675 78.117V80.589H147.388V78.117C147.908 77.791 147.859 77.271 147.859 76.749V70.488Z" fill="white"/>
<path d="M159.105 80.589V78.117C159.626 77.792 159.578 77.271 159.578 76.75V70.488C159.578 69.967 159.626 69.446 159.105 69.121V66.649H164.393V69.121C163.873 69.446 163.919 69.967 163.919 70.488V77.629H164.343C165.45 77.629 165.433 76.962 165.433 76.083V73.822H169.256V80.589H159.105Z" fill="white"/>
<path d="M170.954 70.488C170.954 69.967 171.003 69.446 170.482 69.121V66.649H175.768V69.121C175.249 69.446 175.298 69.967 175.298 70.488V76.75C175.298 77.271 175.249 77.792 175.768 78.117V80.589H170.482V78.117C171.003 77.792 170.954 77.271 170.954 76.75V70.488Z" fill="white"/>
<path d="M187.458 75.546V80.588H177.015V78.116C177.534 77.791 177.487 77.271 177.487 76.749V70.487C177.487 69.966 177.534 69.446 177.015 69.121V66.648H187.458V71.366H183.456V70.942C183.456 69.999 183.325 69.608 182.155 69.608H181.894V72.098H184.644V74.814H181.894V77.629H182.155C183.456 77.629 183.438 77.14 183.456 76.002V75.546H187.458Z" fill="white"/>
<path d="M193.393 72.374H193.831C194.776 72.374 195.067 71.886 195.067 70.91C195.067 70.015 194.776 69.527 193.831 69.527H193.393V72.374ZM193.393 76.749C193.393 77.27 193.344 77.791 193.864 78.116V80.588H188.577V78.116C189.098 77.791 189.049 77.27 189.049 76.749V70.487C189.049 69.966 189.098 69.446 188.577 69.121V66.648H194.612C195.686 66.648 197.036 66.632 197.979 67.202C199.118 67.868 199.508 69.056 199.508 70.324C199.508 71.853 199.051 73.187 197.426 73.594V73.626C198.793 73.952 199.248 74.538 199.248 75.953V76.749C199.248 77.221 199.248 77.904 199.786 78.116V80.588H195.118C194.938 79.824 194.823 79.173 194.872 76.848C194.872 75.741 194.758 75.187 193.571 75.155H193.393V76.749Z" fill="white"/>
<path d="M207.016 70.861C207.016 70.243 207 69.381 206.155 69.381C205.602 69.381 205.309 69.787 205.309 70.308C205.309 70.585 205.34 70.861 205.569 71.089C205.813 71.35 206.43 71.545 206.787 71.642C207.829 71.918 209.227 72.293 210.108 72.878C210.612 73.22 210.987 73.627 211.18 74.213C211.409 74.814 211.506 75.481 211.506 76.132V76.197C211.506 78.881 210.319 80.865 206.17 80.865C204.397 80.865 202.526 80.523 201.112 79.402V75.66H205.358C205.358 76.489 205.34 77.107 205.489 77.401C205.635 77.676 205.944 77.856 206.268 77.856C206.854 77.856 207.114 77.286 207.114 76.782C207.114 75.351 206.219 75.237 205.016 74.944C202.379 74.293 200.901 73.659 200.901 70.65V70.34C200.965 68.844 201.209 68.096 202.346 67.235C203.276 66.534 204.625 66.372 205.926 66.372C207.815 66.372 209.491 66.746 211.067 67.836V71.122H207.016V70.861Z" fill="white"/>
<path d="M80.873 43.211H71.636V42.528C71.636 41.162 71.923 38.539 69.803 38.539C68.005 38.539 67.861 40.228 67.861 41.558V55.252C67.861 55.575 68.005 57.265 69.803 57.265C71.923 57.265 71.636 54.641 71.636 53.239V51.873H69.981V45.871H80.873V60.571C77.853 63.303 73.289 63.914 69.371 63.914C66.603 63.914 63.44 63.699 61.248 61.865C58.408 59.457 58.265 56.654 58.265 53.274V41.558C58.265 38.826 58.588 36.166 60.816 34.297C63.045 32.392 66.101 31.889 68.939 31.889C73.144 31.889 77.494 32.859 80.873 35.447V43.211Z" fill="white"/>
<path d="M94.085 45.152H95.056C97.14 45.152 97.787 44.073 97.787 41.917C97.787 39.941 97.14 38.862 95.056 38.862H94.085V45.152ZM94.085 54.82C94.085 55.971 93.977 57.121 95.127 57.84V63.303H83.445V57.84C84.596 57.121 84.487 55.971 84.487 54.82V40.983C84.487 39.833 84.596 38.682 83.445 37.964V32.5H96.78C99.152 32.5 102.136 32.464 104.221 33.722C106.736 35.195 107.599 37.82 107.599 40.623C107.599 44.002 106.593 46.949 102.998 47.847V47.92C106.018 48.638 107.024 49.932 107.024 53.059V54.82C107.024 55.862 107.024 57.373 108.21 57.84V63.303H97.895C97.499 61.613 97.247 60.176 97.356 55.036C97.356 52.592 97.104 51.37 94.481 51.298H94.085V54.82Z" fill="white"/>
<path d="M133.894 52.161V63.303H110.818V57.84C111.968 57.121 111.861 55.971 111.861 54.821V40.983C111.861 39.833 111.968 38.682 110.818 37.964V32.5H133.894V42.923H125.052V41.989C125.052 39.905 124.764 39.041 122.176 39.041H121.601V44.541H127.675V50.543H121.601V56.762H122.176C125.052 56.762 125.016 55.683 125.052 53.168V52.161H133.894Z" fill="white"/>
<path d="M159.316 52.161V63.303H136.24V57.84C137.39 57.121 137.283 55.971 137.283 54.821V40.983C137.283 39.833 137.39 38.682 136.24 37.964V32.5H159.316V42.923H150.473V41.989C150.473 39.905 150.186 39.041 147.598 39.041H147.023V44.541H153.097V50.543H147.023V56.762H147.598C150.473 56.762 150.438 55.683 150.473 53.168V52.161H159.316Z" fill="white"/>
<path d="M177.614 46.41H177.684V40.983C177.684 39.833 177.794 38.682 176.643 37.964V32.5H186.491V37.964C185.341 38.682 185.448 39.833 185.448 40.983V63.303H176.139L170.425 49.466H170.353V54.821C170.353 55.971 170.245 57.121 171.395 57.84V63.303H161.835V57.84C162.984 57.121 162.878 55.971 162.878 54.821V40.983C162.878 39.833 162.984 38.682 161.835 37.964V32.5H172.259L177.614 46.41Z" fill="white"/>
<path d="M202.678 41.809C202.678 40.443 202.643 38.538 200.772 38.538C199.553 38.538 198.905 39.437 198.905 40.587C198.905 41.198 198.977 41.809 199.479 42.312C200.02 42.887 201.385 43.319 202.174 43.534C204.475 44.145 207.565 44.972 209.506 46.267C210.621 47.021 211.448 47.919 211.879 49.213C212.381 50.543 212.598 52.017 212.598 53.455V53.598C212.598 59.529 209.973 63.914 200.811 63.914C196.891 63.914 192.758 63.159 189.631 60.679V52.412H199.012C199.012 54.245 198.977 55.611 199.299 56.258C199.621 56.869 200.305 57.265 201.026 57.265C202.319 57.265 202.895 56.006 202.895 54.892C202.895 51.729 200.916 51.478 198.256 50.83C192.434 49.392 189.162 47.992 189.162 41.342V40.659C189.309 37.352 189.846 35.699 192.362 33.794C194.41 32.248 197.395 31.889 200.27 31.889C204.44 31.889 208.141 32.715 211.629 35.123V42.384H202.678V41.809Z" fill="white"/>
<path d="M60.136 85.06C59.781 85.06 59.495 84.77 59.495 84.416C59.495 84.061 59.781 83.774 60.136 83.774H210.815C211.168 83.774 211.455 84.061 211.455 84.416C211.455 84.77 211.168 85.06 210.815 85.06H60.136Z" fill="white"/>
</g>
<defs>
<clipPath id="clip0_1_4">
<rect width="212.598" height="99.212" fill="white"/>
</clipPath>
</defs>
</svg>
